<?xml version="1.0" encoding="UTF-8"?>
<svg id="Layer_1" xmlns="http://www.w3.org/2000/svg" viewBox="0 0 1185 441">
  <defs>
    <style>
      .cls-1, .cls-2, .cls-3, .cls-4, .cls-5, .cls-6, .cls-7, .cls-8, .cls-9, .cls-10, .cls-11 {
        stroke-miterlimit: 10;
      }

      .cls-1, .cls-2, .cls-3, .cls-5, .cls-6, .cls-7, .cls-8, .cls-9, .cls-10, .cls-11 {
        stroke: #000;
      }

      .cls-1, .cls-12 {
        fill: #b3b3b3;
      }

      .cls-2 {
        fill: rgba(179, 179, 179, .4);
      }

      .cls-3 {
        fill: rgba(179, 179, 179, 0);
      }

      .cls-13 {
        font-size: 18px;
      }

      .cls-13, .cls-14, .cls-15 {
        font-family: NotoSansMono-Regular, 'Noto Sans Mono';
        font-variation-settings: 'wght' 400, 'wdth' 100;
      }

      .cls-4 {
        stroke: #b3b3b3;
      }

      .cls-4, .cls-6, .cls-11 {
        fill: none;
      }

      .cls-5 {
        fill: #fff;
      }

      .cls-7 {
        fill: #f1f1f1;
      }

      .cls-8 {
        fill: rgba(179, 179, 179, .8);
      }

      .cls-14 {
        font-size: 12px;
      }

      .cls-9 {
        fill: rgba(179, 179, 179, .6);
      }

      .cls-10 {
        fill: rgba(179, 179, 179, .2);
      }

      .cls-15 {
        font-size: 14px;
      }

      .cls-11 {
        stroke-width: 4px;
      }
    </style>
  </defs>
  <g>
    <rect class="cls-7" x="472.7" y="-69.34" width="323" height="576" rx="4" ry="4" transform="translate(852.86 -415.54) rotate(90)"/>
    <g>
      <g>
        <rect class="cls-5" x="698.2" y="130.16" width="160" height="177" rx="4" ry="4"/>
        <g>
          <g>
            <g>
              <rect class="cls-5" x="714.2" y="145.94" width="48" height="112" rx="4" ry="4"/>
              <text class="cls-14" transform="translate(741.48 234.34) rotate(-90)"><tspan x="0" y="0">Normalize</tspan></text>
            </g>
            <g>
              <g>
                <g>
                  <rect class="cls-10" x="778.2" y="154.94" width="16" height="16" transform="translate(623.26 949.14) rotate(-90)"/>
                  <rect class="cls-10" x="778.2" y="172.94" width="16" height="16" transform="translate(605.26 967.14) rotate(-90)"/>
                </g>
                <g>
                  <rect class="cls-2" x="802.2" y="145.94" width="16" height="16" transform="translate(656.26 964.14) rotate(-90)"/>
                  <rect class="cls-2" x="802.2" y="163.94" width="16" height="16" transform="translate(638.26 982.14) rotate(-90)"/>
                  <rect class="cls-2" x="802.2" y="181.94" width="16" height="16" transform="translate(620.26 1000.14) rotate(-90)"/>
                </g>
                <g>
                  <rect class="cls-8" x="826.2" y="154.94" width="16" height="16" transform="translate(671.26 997.14) rotate(-90)"/>
                  <rect class="cls-8" x="826.2" y="172.94" width="16" height="16" transform="translate(653.26 1015.14) rotate(-90)"/>
                </g>
              </g>
              <g>
                <g>
                  <rect class="cls-10" x="778.2" y="214.94" width="16" height="16" transform="translate(563.26 1009.14) rotate(-90)"/>
                  <rect class="cls-10" x="778.2" y="232.94" width="16" height="16" transform="translate(545.26 1027.14) rotate(-90)"/>
                </g>
                <g>
                  <rect class="cls-2" x="802.2" y="205.94" width="16" height="16" transform="translate(596.26 1024.14) rotate(-90)"/>
                  <rect class="cls-2" x="802.2" y="223.94" width="16" height="16" transform="translate(578.26 1042.14) rotate(-90)"/>
                  <rect class="cls-2" x="802.2" y="241.94" width="16" height="16" transform="translate(560.26 1060.14) rotate(-90)"/>
                </g>
                <g>
                  <rect class="cls-8" x="826.2" y="214.94" width="16" height="16" transform="translate(611.26 1057.14) rotate(-90)"/>
                  <rect class="cls-8" x="826.2" y="232.94" width="16" height="16" transform="translate(593.26 1075.14) rotate(-90)"/>
                </g>
              </g>
            </g>
          </g>
          <text class="cls-15" transform="translate(765.6 285.94)"><tspan x="0" y="0">FFN</tspan></text>
        </g>
      </g>
      <g>
        <rect class="cls-5" x="410.2" y="130.16" width="224" height="177" rx="4" ry="4"/>
        <g>
          <text class="cls-15" transform="translate(484.4 285.94)"><tspan x="0" y="0">Attention</tspan></text>
          <g>
            <g>
              <g>
                <circle class="cls-1" cx="530.2" cy="201.94" r="8"/>
                <circle class="cls-1" cx="550.2" cy="201.94" r="8"/>
                <circle class="cls-8" cx="570.2" cy="201.94" r="8"/>
                <circle class="cls-9" cx="590.2" cy="201.94" r="8"/>
                <circle class="cls-2" cx="610.2" cy="201.94" r="8"/>
                <circle class="cls-1" cx="530.2" cy="221.94" r="8"/>
                <circle class="cls-1" cx="550.2" cy="221.94" r="8"/>
                <circle class="cls-1" cx="570.2" cy="221.94" r="8"/>
                <circle class="cls-8" cx="590.2" cy="221.94" r="8"/>
                <circle class="cls-9" cx="610.2" cy="221.94" r="8"/>
                <circle class="cls-1" cx="530.2" cy="181.94" r="8"/>
                <circle class="cls-8" cx="550.2" cy="181.94" r="8"/>
                <circle class="cls-9" cx="570.2" cy="181.94" r="8"/>
                <circle class="cls-2" cx="590.2" cy="181.94" r="8"/>
                <circle class="cls-10" cx="610.2" cy="181.94" r="8"/>
                <circle class="cls-8" cx="530.2" cy="161.94" r="8"/>
                <circle class="cls-9" cx="550.2" cy="161.94" r="8"/>
                <circle class="cls-2" cx="570.2" cy="161.94" r="8"/>
                <circle class="cls-10" cx="590.2" cy="161.94" r="8"/>
                <circle class="cls-3" cx="610.2" cy="161.94" r="8"/>
                <circle class="cls-1" cx="530.2" cy="241.94" r="8"/>
                <circle class="cls-1" cx="550.2" cy="241.94" r="8"/>
                <circle class="cls-1" cx="570.2" cy="241.94" r="8"/>
                <circle class="cls-1" cx="590.2" cy="241.94" r="8"/>
                <circle class="cls-8" cx="610.2" cy="241.94" r="8"/>
              </g>
              <g>
                <g>
                  <rect class="cls-5" x="490.2" y="159.94" width="16" height="16" transform="translate(330.26 666.14) rotate(-90)"/>
                  <rect class="cls-5" x="490.2" y="177.94" width="16" height="16" transform="translate(312.26 684.14) rotate(-90)"/>
                </g>
                <g>
                  <rect class="cls-5" x="490.2" y="209.94" width="16" height="16" transform="translate(280.26 716.14) rotate(-90)"/>
                  <rect class="cls-5" x="490.2" y="227.94" width="16" height="16" transform="translate(262.26 734.14) rotate(-90)"/>
                </g>
              </g>
            </g>
            <g>
              <rect class="cls-5" x="426.2" y="145.94" width="48" height="112" rx="4" ry="4"/>
              <text class="cls-14" transform="translate(453.48 234.34) rotate(-90)"><tspan x="0" y="0">Normalize</tspan></text>
            </g>
          </g>
        </g>
      </g>
      <g>
        <line class="cls-11" x1="362.2" y1="218.66" x2="387.02" y2="218.66"/>
        <polygon points="385.57 223.65 394.2 218.66 385.57 213.67 385.57 223.65"/>
      </g>
      <g>
        <line class="cls-11" x1="650.2" y1="218.66" x2="675.02" y2="218.66"/>
        <polygon points="673.56 223.65 682.2 218.66 673.56 213.67 673.56 223.65"/>
      </g>
      <g>
        <line class="cls-11" x1="874.2" y1="218.66" x2="899.02" y2="218.66"/>
        <polygon points="897.56 223.65 906.2 218.66 897.56 213.67 897.56 223.65"/>
      </g>
      <g>
        <polyline class="cls-11" points="374.2 218.66 374.2 330.66 662.2 330.66 662.2 225.84"/>
        <polygon points="667.19 227.3 662.2 218.66 657.21 227.3 667.19 227.3"/>
      </g>
      <text class="cls-15" transform="translate(459.4 358.66)"><tspan x="0" y="0">Residual Input</tspan></text>
      <g>
        <polyline class="cls-11" points="662.2 218.66 662.2 106.66 886.2 106.66 886.2 211.48"/>
        <polygon points="881.21 210.03 886.2 218.66 891.19 210.03 881.21 210.03"/>
      </g>
      <text class="cls-15" transform="translate(698.6 85.21)"><tspan x="0" y="0">Residual Attention</tspan></text>
    </g>
  </g>
  <g>
    <line class="cls-11" x1="114.2" y1="218.66" x2="139.02" y2="218.66"/>
    <polygon points="137.57 223.65 146.2 218.66 137.57 213.67 137.57 223.65"/>
  </g>
  <g>
    <rect class="cls-5" x="154.2" y="57.16" width="48" height="323" rx="4" ry="4"/>
    <text class="cls-15" transform="translate(181.48 248.06) rotate(-90)"><tspan x="0" y="0">Layer 0</tspan></text>
  </g>
  <g>
    <line class="cls-11" x1="210.2" y1="218.66" x2="235.02" y2="218.66"/>
    <polygon points="233.57 223.65 242.2 218.66 233.57 213.67 233.57 223.65"/>
  </g>
  <g>
    <rect class="cls-5" x="250.2" y="57.16" width="48" height="323" rx="4" ry="4"/>
    <text class="cls-15" transform="translate(277.48 248.06) rotate(-90)"><tspan x="0" y="0">Layer 1</tspan></text>
  </g>
  <g>
    <line class="cls-11" x1="306.2" y1="218.66" x2="331.02" y2="218.66"/>
    <polygon points="329.57 223.65 338.2 218.66 329.57 213.67 329.57 223.65"/>
  </g>
  <g>
    <line class="cls-11" x1="930.2" y1="218.66" x2="955.02" y2="218.66"/>
    <polygon points="953.56 223.65 962.2 218.66 953.56 213.67 953.56 223.65"/>
  </g>
  <g>
    <rect class="cls-5" x="970.2" y="57.16" width="48" height="323" rx="4" ry="4"/>
    <text class="cls-15" transform="translate(997.48 248.06) rotate(-90)"><tspan x="0" y="0">Layer N</tspan></text>
  </g>
  <g>
    <line class="cls-11" x1="1026.2" y1="218.66" x2="1051.02" y2="218.66"/>
    <polygon points="1049.56 223.65 1058.2 218.66 1049.56 213.67 1049.56 223.65"/>
  </g>
  <text class="cls-13" transform="translate(539.25 411.59)"><tspan x="0" y="0">Transformer Layer</tspan></text>
  <text class="cls-13" transform="translate(722.85 417.58) scale(.58)"><tspan x="0" y="0">i</tspan></text>
  <g>
    <g>
      <g>
        <rect class="cls-6" x="54.2" y="138.66" width="16" height="16"/>
        <rect class="cls-6" x="36.2" y="138.66" width="16" height="16"/>
        <rect class="cls-6" x="72.2" y="138.66" width="16" height="16"/>
        <rect class="cls-6" x="90.2" y="138.66" width="16" height="16"/>
      </g>
      <g>
        <rect class="cls-6" x="54.2" y="156.66" width="16" height="16"/>
        <rect class="cls-6" x="36.2" y="156.66" width="16" height="16"/>
        <rect class="cls-6" x="72.2" y="156.66" width="16" height="16"/>
        <rect class="cls-6" x="90.2" y="156.66" width="16" height="16"/>
      </g>
      <g>
        <rect class="cls-6" x="54.2" y="174.66" width="16" height="16"/>
        <rect class="cls-6" x="36.2" y="174.66" width="16" height="16"/>
        <rect class="cls-6" x="72.2" y="174.66" width="16" height="16"/>
        <rect class="cls-6" x="90.2" y="174.66" width="16" height="16"/>
      </g>
    </g>
    <g>
      <g>
        <rect class="cls-6" x="54.2" y="192.66" width="16" height="16"/>
        <rect class="cls-6" x="36.2" y="192.66" width="16" height="16"/>
        <rect class="cls-6" x="72.2" y="192.66" width="16" height="16"/>
        <rect class="cls-6" x="90.2" y="192.66" width="16" height="16"/>
      </g>
      <g>
        <rect class="cls-6" x="54.2" y="210.66" width="16" height="16"/>
        <rect class="cls-6" x="36.2" y="210.66" width="16" height="16"/>
        <rect class="cls-6" x="72.2" y="210.66" width="16" height="16"/>
        <rect class="cls-6" x="90.2" y="210.66" width="16" height="16"/>
      </g>
      <g>
        <rect class="cls-6" x="54.2" y="228.66" width="16" height="16"/>
        <rect class="cls-6" x="36.2" y="228.66" width="16" height="16"/>
        <rect class="cls-6" x="72.2" y="228.66" width="16" height="16"/>
        <rect class="cls-6" x="90.2" y="228.66" width="16" height="16"/>
      </g>
    </g>
    <g>
      <g>
        <rect class="cls-6" x="54.2" y="246.66" width="16" height="16"/>
        <rect class="cls-6" x="36.2" y="246.66" width="16" height="16"/>
        <rect class="cls-6" x="72.2" y="246.66" width="16" height="16"/>
        <rect class="cls-6" x="90.2" y="246.66" width="16" height="16"/>
      </g>
      <g>
        <rect class="cls-6" x="54.2" y="264.66" width="16" height="16"/>
        <rect class="cls-6" x="36.2" y="264.66" width="16" height="16"/>
        <rect class="cls-6" x="72.2" y="264.66" width="16" height="16"/>
        <rect class="cls-6" x="90.2" y="264.66" width="16" height="16"/>
      </g>
      <g>
        <rect class="cls-6" x="54.2" y="282.66" width="16" height="16"/>
        <rect class="cls-6" x="36.2" y="282.66" width="16" height="16"/>
        <rect class="cls-6" x="72.2" y="282.66" width="16" height="16"/>
        <rect class="cls-6" x="90.2" y="282.66" width="16" height="16"/>
      </g>
    </g>
  </g>
  <g>
    <g>
      <line class="cls-4" x1="71.2" y1="119.09" x2="71.2" y2="58.66"/>
      <circle class="cls-12" cx="71.2" cy="118.9" r="3.76"/>
    </g>
    <text class="cls-15" transform="translate(16.6 28.42)"><tspan x="0" y="0">Initial Token</tspan><tspan x="12.6" y="16.8">Embeddings</tspan></text>
  </g>
  <g>
    <g>
      <g>
        <rect class="cls-7" x="1084.2" y="138.66" width="16" height="16"/>
        <rect class="cls-7" x="1066.2" y="138.66" width="16" height="16"/>
        <rect class="cls-7" x="1102.2" y="138.66" width="16" height="16"/>
        <rect class="cls-7" x="1120.2" y="138.66" width="16" height="16"/>
      </g>
      <g>
        <rect class="cls-7" x="1084.2" y="156.66" width="16" height="16"/>
        <rect class="cls-7" x="1066.2" y="156.66" width="16" height="16"/>
        <rect class="cls-7" x="1102.2" y="156.66" width="16" height="16"/>
        <rect class="cls-7" x="1120.2" y="156.66" width="16" height="16"/>
      </g>
      <g>
        <rect class="cls-7" x="1084.2" y="174.66" width="16" height="16"/>
        <rect class="cls-7" x="1066.2" y="174.66" width="16" height="16"/>
        <rect class="cls-7" x="1102.2" y="174.66" width="16" height="16"/>
        <rect class="cls-7" x="1120.2" y="174.66" width="16" height="16"/>
      </g>
    </g>
    <g>
      <g>
        <rect class="cls-7" x="1084.2" y="192.66" width="16" height="16"/>
        <rect class="cls-7" x="1066.2" y="192.66" width="16" height="16"/>
        <rect class="cls-7" x="1102.2" y="192.66" width="16" height="16"/>
        <rect class="cls-7" x="1120.2" y="192.66" width="16" height="16"/>
      </g>
      <g>
        <rect class="cls-7" x="1084.2" y="210.66" width="16" height="16"/>
        <rect class="cls-7" x="1066.2" y="210.66" width="16" height="16"/>
        <rect class="cls-7" x="1102.2" y="210.66" width="16" height="16"/>
        <rect class="cls-7" x="1120.2" y="210.66" width="16" height="16"/>
      </g>
      <g>
        <rect class="cls-7" x="1084.2" y="228.66" width="16" height="16"/>
        <rect class="cls-7" x="1066.2" y="228.66" width="16" height="16"/>
        <rect class="cls-7" x="1102.2" y="228.66" width="16" height="16"/>
        <rect class="cls-7" x="1120.2" y="228.66" width="16" height="16"/>
      </g>
    </g>
    <g>
      <g>
        <rect class="cls-7" x="1084.2" y="246.66" width="16" height="16"/>
        <rect class="cls-7" x="1066.2" y="246.66" width="16" height="16"/>
        <rect class="cls-7" x="1102.2" y="246.66" width="16" height="16"/>
        <rect class="cls-7" x="1120.2" y="246.66" width="16" height="16"/>
      </g>
      <g>
        <rect class="cls-7" x="1084.2" y="264.66" width="16" height="16"/>
        <rect class="cls-7" x="1066.2" y="264.66" width="16" height="16"/>
        <rect class="cls-7" x="1102.2" y="264.66" width="16" height="16"/>
        <rect class="cls-7" x="1120.2" y="264.66" width="16" height="16"/>
      </g>
      <g>
        <rect class="cls-7" x="1084.2" y="282.66" width="16" height="16"/>
        <rect class="cls-7" x="1066.2" y="282.66" width="16" height="16"/>
        <rect class="cls-7" x="1102.2" y="282.66" width="16" height="16"/>
        <rect class="cls-7" x="1120.2" y="282.66" width="16" height="16"/>
      </g>
    </g>
  </g>
  <g>
    <g>
      <line class="cls-4" x1="1101.2" y1="119.09" x2="1101.2" y2="58.66"/>
      <circle class="cls-12" cx="1101.2" cy="118.9" r="3.76"/>
    </g>
    <text class="cls-15" transform="translate(1042.4 28.42)"><tspan x="0" y="0">Contextualized</tspan><tspan x="-8.4" y="16.8">Token Embeddings</tspan></text>
  </g>
</svg>