<?xml version="1.0" encoding="UTF-8"?>
<svg id="Layer_1" xmlns="http://www.w3.org/2000/svg" viewBox="0 0 800 228">
  <defs>
    <style>
      .cls-1 {
        font-family: NotoSansMono-Medium, 'Noto Sans Mono';
        font-size: 12px;
        font-variation-settings: 'wght' 500, 'wdth' 100;
        font-weight: 500;
      }

      .cls-1, .cls-2, .cls-3, .cls-4, .cls-5, .cls-6, .cls-7, .cls-8 {
        fill: #231f20;
      }

      .cls-9, .cls-10, .cls-11, .cls-12, .cls-13, .cls-14 {
        stroke-miterlimit: 10;
      }

      .cls-9, .cls-11, .cls-12, .cls-13, .cls-14 {
        fill: none;
        stroke: #231f20;
      }

      .cls-9, .cls-4, .cls-5, .cls-8, .cls-13 {
        opacity: .5;
      }

      .cls-9, .cls-12, .cls-13 {
        stroke-width: 2px;
      }

      .cls-10 {
        fill: #fff;
        stroke: #010101;
        stroke-width: 2.18px;
      }

      .cls-3, .cls-4, .cls-5, .cls-7, .cls-8 {
        font-size: 20px;
      }

      .cls-3, .cls-4, .cls-6, .cls-8 {
        font-variation-settings: 'wght' 400, 'wdth' 100;
      }

      .cls-3, .cls-8 {
        font-family: NotoSansMono-Regular, 'Noto Sans Mono';
      }

      .cls-11 {
        stroke-width: 1.5px;
      }

      .cls-4, .cls-6 {
        font-family: NotoSerif-Italic, 'Noto Serif';
        font-style: italic;
      }

      .cls-5, .cls-7 {
        font-family: NotoSansMono-SemiBold, 'Noto Sans Mono';
        font-variation-settings: 'wght' 600, 'wdth' 100;
        font-weight: 600;
      }

      .cls-6 {
        font-size: 18px;
      }

      .cls-15 {
        opacity: .3;
      }

      .cls-13 {
        stroke-dasharray: 8;
      }

      .cls-14 {
        stroke-width: 10px;
      }
    </style>
  </defs>
  <g>
    <g>
      <line class="cls-12" x1="532.27" y1="48" x2="540.27" y2="48"/>
      <line class="cls-12" x1="532.27" y1="80" x2="540.27" y2="80"/>
      <line class="cls-12" x1="532.27" y1="112" x2="540.27" y2="112"/>
      <line class="cls-12" x1="532.27" y1="144" x2="540.27" y2="144"/>
      <line class="cls-12" x1="532.27" y1="176" x2="540.27" y2="176"/>
    </g>
    <g>
      <line class="cls-12" x1="568.27" y1="212" x2="568.27" y2="204"/>
      <line class="cls-12" x1="600.27" y1="212" x2="600.27" y2="204"/>
      <line class="cls-12" x1="632.27" y1="212" x2="632.27" y2="204"/>
      <line class="cls-12" x1="664.27" y1="212" x2="664.27" y2="204"/>
      <line class="cls-12" x1="696.27" y1="212" x2="696.27" y2="204"/>
    </g>
    <line class="cls-12" x1="536.27" y1="208" x2="693.84" y2="180.22"/>
    <text class="cls-7" transform="translate(705.6 184.04)"><tspan x="0" y="0">X</tspan></text>
    <text class="cls-3" transform="translate(717.6 190.7) scale(.58)"><tspan x="0" y="0">0</tspan></text>
    <polyline class="cls-12" points="536.27 208 728.27 208 536.27 208 536.27 16"/>
    <line class="cls-12" x1="536.27" y1="208" x2="686.62" y2="153.28"/>
    <line class="cls-12" x1="536.27" y1="208" x2="674.84" y2="128"/>
    <text class="cls-7" transform="translate(686.78 123.9)"><tspan x="0" y="0">X</tspan></text>
    <text class="cls-3" transform="translate(698.78 130.56) scale(.58)"><tspan x="0" y="0">2</tspan></text>
    <text class="cls-7" transform="translate(699.68 152.56)"><tspan x="0" y="0">X</tspan></text>
    <text class="cls-3" transform="translate(711.68 159.22) scale(.58)"><tspan x="0" y="0">1</tspan></text>
    <line class="cls-9" x1="536.27" y1="208" x2="649.41" y2="94.86"/>
    <line class="cls-9" x1="536.27" y1="208" x2="564.06" y2="50.43"/>
    <text class="cls-5" transform="translate(657.66 85.75)"><tspan x="0" y="0">X</tspan></text>
    <text class="cls-8" transform="translate(669.66 92.41) scale(.58)"><tspan x="0" y="0">1*</tspan></text>
    <text class="cls-5" transform="translate(560.45 34.96)"><tspan x="0" y="0">X</tspan></text>
    <text class="cls-8" transform="translate(572.45 41.62) scale(.58)"><tspan x="0" y="0">2*</tspan></text>
    <path class="cls-13" d="M656.6,164.21c-6.45-17.75-16.71-33.66-29.8-46.74"/>
    <text class="cls-4" transform="translate(645.79 124.95)"><tspan x="0" y="0">Θ</tspan></text>
    <text class="cls-4" transform="translate(581.77 110.15)"><tspan x="0" y="0">2Θ</tspan></text>
    <path class="cls-13" d="M552.95,113.44c28.44,4.97,52.55,22.44,66.48,46.55"/>
  </g>
  <g>
    <g>
      <rect class="cls-10" x="183.73" y="50" width="38" height="32"/>
      <rect class="cls-10" x="229.73" y="50" width="38" height="32"/>
      <text class="cls-1" transform="translate(191.93 68.81)"><tspan x="0" y="0">4.9</tspan></text>
      <text class="cls-1" transform="translate(237.93 68.81)"><tspan x="0" y="0">0.9</tspan></text>
    </g>
    <g>
      <path class="cls-2" d="M142.88,68.84l5.52-7.73-5.24-7.45h4.09l3.25,5.12,3.33-5.12h4.12l-5.32,7.45,5.4,7.73h-4.09l-3.42-5.38-3.53,5.38h-4.12Z"/>
      <path class="cls-2" d="M163.76,78.33c-.91,0-1.67-.24-2.25-.71-.59-.47-1.02-1.16-1.3-2.06-.28-.9-.42-1.98-.42-3.26s.14-2.35.41-3.23c.27-.88.7-1.56,1.27-2.02.58-.47,1.33-.7,2.25-.7s1.68.23,2.28.7c.59.47,1.03,1.15,1.31,2.04.28.89.42,1.98.42,3.26,0,.93-.07,1.75-.22,2.49-.15.73-.38,1.36-.69,1.88-.31.52-.72.91-1.22,1.19-.51.28-1.12.42-1.84.42ZM161.96,76.5l-1.04-.91,4.47-7.53.96,1.11-4.39,7.33ZM163.74,76.86c.83,0,1.43-.37,1.8-1.11.38-.74.56-1.87.56-3.4,0-.98-.08-1.8-.25-2.47-.16-.67-.42-1.18-.77-1.53-.35-.35-.8-.52-1.35-.52s-.98.17-1.32.5c-.34.33-.58.83-.74,1.49-.16.66-.24,1.51-.24,2.53,0,1.46.17,2.57.52,3.35.35.77.94,1.16,1.78,1.16Z"/>
    </g>
    <g>
      <path class="cls-2" d="M143.2,116.93l5.52-7.73-5.24-7.45h4.09l3.25,5.12,3.33-5.12h4.12l-5.32,7.45,5.4,7.73h-4.09l-3.42-5.38-3.53,5.38h-4.12Z"/>
      <path class="cls-2" d="M163.66,119.13c0-.3,0-.62,0-.94,0-.32.01-.64.02-.95.01-.31.02-.58.03-.82-.17.1-.33.19-.48.26s-.33.17-.56.28l-1.29.69-.77-1.35,3.31-1.7h1.4v11.66h-1.68v-7.12ZM161.26,126.25v-1.18l2.4-.2h1.68l2.38.2v1.18h-6.46Z"/>
    </g>
    <g>
      <path class="cls-2" d="M142.79,164.93l5.52-7.73-5.24-7.45h4.09l3.25,5.12,3.33-5.12h4.12l-5.32,7.45,5.4,7.73h-4.09l-3.42-5.38-3.53,5.38h-4.12Z"/>
      <path class="cls-2" d="M159.86,174.25v-1.39l3.02-2.99c.52-.51.97-.99,1.35-1.43s.68-.88.89-1.31c.21-.44.32-.89.32-1.35,0-.63-.18-1.09-.53-1.39-.35-.29-.8-.44-1.35-.44-.49,0-.95.1-1.39.3-.44.2-.86.48-1.27.82l-.96-1.19c.33-.29.67-.55,1.04-.77s.77-.39,1.21-.51c.44-.12.92-.18,1.47-.18.72,0,1.34.13,1.88.39.53.26.94.63,1.23,1.1.29.47.43,1.05.43,1.72,0,.62-.12,1.2-.36,1.75s-.57,1.07-1,1.58c-.43.51-.93,1.03-1.49,1.56l-2.2,2.11v.1h5.58v1.52h-7.87Z"/>
    </g>
    <g>
      <rect class="cls-10" x="183.73" y="98" width="38" height="32"/>
      <rect class="cls-10" x="229.73" y="98" width="38" height="32"/>
      <text class="cls-1" transform="translate(191.93 116.81)"><tspan x="0" y="0">4.7</tspan></text>
      <text class="cls-1" transform="translate(237.93 116.81)"><tspan x="0" y="0">1.7</tspan></text>
    </g>
    <g>
      <rect class="cls-10" x="183.73" y="146" width="38" height="32"/>
      <rect class="cls-10" x="229.73" y="146" width="38" height="32"/>
      <text class="cls-1" transform="translate(191.93 164.81)"><tspan x="0" y="0">4.3</tspan></text>
      <text class="cls-1" transform="translate(237.93 164.81)"><tspan x="0" y="0">2.5</tspan></text>
    </g>
  </g>
  <g>
    <g class="cls-15">
      <g>
        <line class="cls-14" x1="368" y1="160.35" x2="410.47" y2="160.35"/>
        <polygon class="cls-2" points="406.09 175.3 432 160.35 406.09 145.39 406.09 175.3"/>
      </g>
    </g>
    <g>
      <g>
        <g>
          <text class="cls-6" transform="translate(325.73 87.26)"><tspan x="0" y="0">cos(mθ)</tspan></text>
          <text class="cls-6" transform="translate(325.73 113.68)"><tspan x="0" y="0">sin(mθ)</tspan></text>
        </g>
        <g>
          <text class="cls-6" transform="translate(404.63 88.07)"><tspan x="0" y="0">−sin(mθ)</tspan></text>
          <text class="cls-6" transform="translate(407.37 114.5)"><tspan x="0" y="0">cos(mθ)</tspan></text>
        </g>
      </g>
      <polyline class="cls-11" points="478.27 128.35 484.27 128.35 484.27 68.35 478.27 68.35"/>
      <polyline class="cls-11" points="321.73 127.65 315.73 127.65 315.73 67.65 321.73 67.65"/>
    </g>
  </g>
</svg>