<?xml version="1.0" encoding="UTF-8"?>
<svg id="Layer_1" xmlns="http://www.w3.org/2000/svg" viewBox="0 0 1185 441">
  <defs>
    <style>
      .cls-1, .cls-2, .cls-3, .cls-4, .cls-5, .cls-6, .cls-7, .cls-8, .cls-9, .cls-10, .cls-11 {
        stroke-miterlimit: 10;
      }

      .cls-1, .cls-2, .cls-3, .cls-5, .cls-6, .cls-7, .cls-8, .cls-9, .cls-10, .cls-11 {
        stroke: #000;
      }

      .cls-1, .cls-12 {
        fill: #b3b3b3;
      }

      .cls-2 {
        fill: rgba(179, 179, 179, .4);
      }

      .cls-3 {
        fill: rgba(179, 179, 179, 0);
      }

      .cls-13 {
        font-size: 18px;
      }

      .cls-13, .cls-14, .cls-15 {
        font-family: NotoSansMono-Regular, 'Noto Sans Mono';
        font-variation-settings: 'wght' 400, 'wdth' 100;
      }

      .cls-4 {
        stroke: #b3b3b3;
      }

      .cls-4, .cls-6, .cls-11 {
        fill: none;
      }

      .cls-5 {
        fill: #fff;
      }

      .cls-7 {
        fill: #f1f1f1;
      }

      .cls-8 {
        fill: rgba(179, 179, 179, .8);
      }

      .cls-14 {
        font-size: 12px;
      }

      .cls-9 {
        fill: rgba(179, 179, 179, .6);
      }

      .cls-10 {
        fill: rgba(179, 179, 179, .2);
      }

      .cls-15 {
        font-size: 14px;
      }

      .cls-11 {
        stroke-width: 4px;
      }
    </style>
  </defs>
  <rect class="cls-7" x="472.7" y="-69.34" width="323" height="576" rx="4" ry="4" transform="translate(852.86 -415.54) rotate(90)"/>
  <g>
    <rect class="cls-5" x="698.2" y="130.16" width="160" height="177" rx="4" ry="4"/>
    <g>
      <g>
        <g>
          <rect class="cls-5" x="714.2" y="145.94" width="48" height="112" rx="4" ry="4"/>
          <text class="cls-14" transform="translate(741.48 234.34) rotate(-90)"><tspan x="0" y="0">Normalize</tspan></text>
        </g>
        <g>
          <g>
            <g>
              <rect class="cls-10" x="778.2" y="154.94" width="16" height="16" transform="translate(623.26 949.14) rotate(-90)"/>
              <rect class="cls-10" x="778.2" y="172.94" width="16" height="16" transform="translate(605.26 967.14) rotate(-90)"/>
            </g>
            <g>
              <rect class="cls-2" x="802.2" y="145.94" width="16" height="16" transform="translate(656.26 964.14) rotate(-90)"/>
              <rect class="cls-2" x="802.2" y="163.94" width="16" height="16" transform="translate(638.26 982.14) rotate(-90)"/>
              <rect class="cls-2" x="802.2" y="181.94" width="16" height="16" transform="translate(620.26 1000.14) rotate(-90)"/>
            </g>
            <g>
              <rect class="cls-8" x="826.2" y="154.94" width="16" height="16" transform="translate(671.26 997.14) rotate(-90)"/>
              <rect class="cls-8" x="826.2" y="172.94" width="16" height="16" transform="translate(653.26 1015.14) rotate(-90)"/>
            </g>
          </g>
          <g>
            <g>
              <rect class="cls-10" x="778.2" y="214.94" width="16" height="16" transform="translate(563.26 1009.14) rotate(-90)"/>
              <rect class="cls-10" x="778.2" y="232.94" width="16" height="16" transform="translate(545.26 1027.14) rotate(-90)"/>
            </g>
            <g>
              <rect class="cls-2" x="802.2" y="205.94" width="16" height="16" transform="translate(596.26 1024.14) rotate(-90)"/>
              <rect class="cls-2" x="802.2" y="223.94" width="16" height="16" transform="translate(578.26 1042.14) rotate(-90)"/>
              <rect class="cls-2" x="802.2" y="241.94" width="16" height="16" transform="translate(560.26 1060.14) rotate(-90)"/>
            </g>
            <g>
              <rect class="cls-8" x="826.2" y="214.94" width="16" height="16" transform="translate(611.26 1057.14) rotate(-90)"/>
              <rect class="cls-8" x="826.2" y="232.94" width="16" height="16" transform="translate(593.26 1075.14) rotate(-90)"/>
            </g>
          </g>
        </g>
      </g>
      <text class="cls-15" transform="translate(765.6 285.94)"><tspan x="0" y="0">FFN</tspan></text>
    </g>
  </g>
  <rect class="cls-5" x="410.2" y="130.16" width="224" height="177" rx="4" ry="4"/>
  <g>
    <text class="cls-15" transform="translate(484.4 285.94)"><tspan x="0" y="0">Attention</tspan></text>
    <g>
      <g>
        <g>
          <circle class="cls-1" cx="530.2" cy="201.94" r="8"/>
          <circle class="cls-1" cx="550.2" cy="201.94" r="8"/>
          <circle class="cls-8" cx="570.2" cy="201.94" r="8"/>
          <circle class="cls-9" cx="590.2" cy="201.94" r="8"/>
          <circle class="cls-2" cx="610.2" cy="201.94" r="8"/>
          <circle class="cls-1" cx="530.2" cy="221.94" r="8"/>
          <circle class="cls-1" cx="550.2" cy="221.94" r="8"/>
          <circle class="cls-1" cx="570.2" cy="221.94" r="8"/>
          <circle class="cls-8" cx="590.2" cy="221.94" r="8"/>
          <circle class="cls-9" cx="610.2" cy="221.94" r="8"/>
          <circle class="cls-1" cx="530.2" cy="181.94" r="8"/>
          <circle class="cls-8" cx="550.2" cy="181.94" r="8"/>
          <circle class="cls-9" cx="570.2" cy="181.94" r="8"/>
          <circle class="cls-2" cx="590.2" cy="181.94" r="8"/>
          <circle class="cls-10" cx="610.2" cy="181.94" r="8"/>
          <circle class="cls-8" cx="530.2" cy="161.94" r="8"/>
          <circle class="cls-9" cx="550.2" cy="161.94" r="8"/>
          <circle class="cls-2" cx="570.2" cy="161.94" r="8"/>
          <circle class="cls-10" cx="590.2" cy="161.94" r="8"/>
          <circle class="cls-3" cx="610.2" cy="161.94" r="8"/>
          <circle class="cls-1" cx="530.2" cy="241.94" r="8"/>
          <circle class="cls-1" cx="550.2" cy="241.94" r="8"/>
          <circle class="cls-1" cx="570.2" cy="241.94" r="8"/>
          <circle class="cls-1" cx="590.2" cy="241.94" r="8"/>
          <circle class="cls-8" cx="610.2" cy="241.94" r="8"/>
        </g>
        <g>
          <g>
            <rect class="cls-5" x="490.2" y="159.94" width="16" height="16" transform="translate(330.26 666.14) rotate(-90)"/>
            <rect class="cls-5" x="490.2" y="177.94" width="16" height="16" transform="translate(312.26 684.14) rotate(-90)"/>
          </g>
          <g>
            <rect class="cls-5" x="490.2" y="209.94" width="16" height="16" transform="translate(280.26 716.14) rotate(-90)"/>
            <rect class="cls-5" x="490.2" y="227.94" width="16" height="16" transform="translate(262.26 734.14) rotate(-90)"/>
          </g>
        </g>
      </g>
      <g>
        <rect class="cls-5" x="426.2" y="145.94" width="48" height="112" rx="4" ry="4"/>
        <text class="cls-14" transform="translate(453.48 234.34) rotate(-90)"><tspan x="0" y="0">Normalize</tspan></text>
      </g>
    </g>
  </g>
  <g>
    <line class="cls-11" x1="362.2" y1="218.66" x2="384.15" y2="218.66"/>
    <polygon points="382.11 225.64 394.2 218.66 382.11 211.68 382.11 225.64"/>
  </g>
  <g>
    <line class="cls-11" x1="650.2" y1="218.66" x2="672.15" y2="218.66"/>
    <polygon points="670.11 225.64 682.2 218.66 670.11 211.68 670.11 225.64"/>
  </g>
  <g>
    <line class="cls-11" x1="874.2" y1="218.66" x2="896.15" y2="218.66"/>
    <polygon points="894.11 225.64 906.2 218.66 894.11 211.68 894.11 225.64"/>
  </g>
  <g>
    <polyline class="cls-11" points="374.2 218.66 374.2 330.66 662.2 330.66 662.2 228.71"/>
    <polygon points="669.18 230.75 662.2 218.66 655.22 230.75 669.18 230.75"/>
  </g>
  <text class="cls-15" transform="translate(459.4 358.66)"><tspan x="0" y="0">Residual Input</tspan></text>
  <g>
    <polyline class="cls-11" points="662.2 218.66 662.2 106.66 886.2 106.66 886.2 208.61"/>
    <polygon points="879.22 206.57 886.2 218.66 893.18 206.57 879.22 206.57"/>
  </g>
  <text class="cls-15" transform="translate(698.6 85.21)"><tspan x="0" y="0">Residual Attention</tspan></text>
  <g>
    <line class="cls-11" x1="114.2" y1="218.66" x2="136.15" y2="218.66"/>
    <polygon points="134.11 225.64 146.2 218.66 134.11 211.68 134.11 225.64"/>
  </g>
  <g>
    <rect class="cls-5" x="154.2" y="57.16" width="48" height="323" rx="4" ry="4"/>
    <text class="cls-15" transform="translate(181.48 248.06) rotate(-90)"><tspan x="0" y="0">Layer 0</tspan></text>
  </g>
  <g>
    <line class="cls-11" x1="210.2" y1="218.66" x2="232.15" y2="218.66"/>
    <polygon points="230.11 225.64 242.2 218.66 230.11 211.68 230.11 225.64"/>
  </g>
  <g>
    <rect class="cls-5" x="250.2" y="57.16" width="48" height="323" rx="4" ry="4"/>
    <text class="cls-15" transform="translate(277.48 248.06) rotate(-90)"><tspan x="0" y="0">Layer 1</tspan></text>
  </g>
  <g>
    <line class="cls-11" x1="306.2" y1="218.66" x2="328.15" y2="218.66"/>
    <polygon points="326.11 225.64 338.2 218.66 326.11 211.68 326.11 225.64"/>
  </g>
  <g>
    <line class="cls-11" x1="930.2" y1="218.66" x2="952.15" y2="218.66"/>
    <polygon points="950.11 225.64 962.2 218.66 950.11 211.68 950.11 225.64"/>
  </g>
  <g>
    <rect class="cls-5" x="970.2" y="57.16" width="48" height="323" rx="4" ry="4"/>
    <text class="cls-15" transform="translate(997.48 248.06) rotate(-90)"><tspan x="0" y="0">Layer N</tspan></text>
  </g>
  <g>
    <line class="cls-11" x1="1026.2" y1="218.66" x2="1048.15" y2="218.66"/>
    <polygon points="1046.11 225.64 1058.2 218.66 1046.11 211.68 1046.11 225.64"/>
  </g>
  <text class="cls-13" transform="translate(560.85 411.59)"><tspan x="0" y="0">Context Layer</tspan></text>
  <text class="cls-13" transform="translate(701.25 417.58) scale(.58)"><tspan x="0" y="0">i</tspan></text>
  <g>
    <g>
      <g>
        <rect class="cls-6" x="54.2" y="138.66" width="16" height="16"/>
        <rect class="cls-6" x="36.2" y="138.66" width="16" height="16"/>
        <rect class="cls-6" x="72.2" y="138.66" width="16" height="16"/>
        <rect class="cls-6" x="90.2" y="138.66" width="16" height="16"/>
      </g>
      <g>
        <rect class="cls-6" x="54.2" y="156.66" width="16" height="16"/>
        <rect class="cls-6" x="36.2" y="156.66" width="16" height="16"/>
        <rect class="cls-6" x="72.2" y="156.66" width="16" height="16"/>
        <rect class="cls-6" x="90.2" y="156.66" width="16" height="16"/>
      </g>
      <g>
        <rect class="cls-6" x="54.2" y="174.66" width="16" height="16"/>
        <rect class="cls-6" x="36.2" y="174.66" width="16" height="16"/>
        <rect class="cls-6" x="72.2" y="174.66" width="16" height="16"/>
        <rect class="cls-6" x="90.2" y="174.66" width="16" height="16"/>
      </g>
    </g>
    <g>
      <g>
        <rect class="cls-6" x="54.2" y="192.66" width="16" height="16"/>
        <rect class="cls-6" x="36.2" y="192.66" width="16" height="16"/>
        <rect class="cls-6" x="72.2" y="192.66" width="16" height="16"/>
        <rect class="cls-6" x="90.2" y="192.66" width="16" height="16"/>
      </g>
      <g>
        <rect class="cls-6" x="54.2" y="210.66" width="16" height="16"/>
        <rect class="cls-6" x="36.2" y="210.66" width="16" height="16"/>
        <rect class="cls-6" x="72.2" y="210.66" width="16" height="16"/>
        <rect class="cls-6" x="90.2" y="210.66" width="16" height="16"/>
      </g>
      <g>
        <rect class="cls-6" x="54.2" y="228.66" width="16" height="16"/>
        <rect class="cls-6" x="36.2" y="228.66" width="16" height="16"/>
        <rect class="cls-6" x="72.2" y="228.66" width="16" height="16"/>
        <rect class="cls-6" x="90.2" y="228.66" width="16" height="16"/>
      </g>
    </g>
    <g>
      <g>
        <rect class="cls-6" x="54.2" y="246.66" width="16" height="16"/>
        <rect class="cls-6" x="36.2" y="246.66" width="16" height="16"/>
        <rect class="cls-6" x="72.2" y="246.66" width="16" height="16"/>
        <rect class="cls-6" x="90.2" y="246.66" width="16" height="16"/>
      </g>
      <g>
        <rect class="cls-6" x="54.2" y="264.66" width="16" height="16"/>
        <rect class="cls-6" x="36.2" y="264.66" width="16" height="16"/>
        <rect class="cls-6" x="72.2" y="264.66" width="16" height="16"/>
        <rect class="cls-6" x="90.2" y="264.66" width="16" height="16"/>
      </g>
      <g>
        <rect class="cls-6" x="54.2" y="282.66" width="16" height="16"/>
        <rect class="cls-6" x="36.2" y="282.66" width="16" height="16"/>
        <rect class="cls-6" x="72.2" y="282.66" width="16" height="16"/>
        <rect class="cls-6" x="90.2" y="282.66" width="16" height="16"/>
      </g>
    </g>
  </g>
  <g>
    <g>
      <line class="cls-4" x1="71.2" y1="119.09" x2="71.2" y2="58.66"/>
      <circle class="cls-12" cx="71.2" cy="118.9" r="3.76"/>
    </g>
    <text class="cls-15" transform="translate(16.6 28.42)"><tspan x="0" y="0">Initial Token</tspan><tspan x="12.6" y="16.8">Embeddings</tspan></text>
  </g>
  <g>
    <g>
      <g>
        <rect class="cls-7" x="1084.2" y="138.66" width="16" height="16"/>
        <rect class="cls-7" x="1066.2" y="138.66" width="16" height="16"/>
        <rect class="cls-7" x="1102.2" y="138.66" width="16" height="16"/>
        <rect class="cls-7" x="1120.2" y="138.66" width="16" height="16"/>
      </g>
      <g>
        <rect class="cls-7" x="1084.2" y="156.66" width="16" height="16"/>
        <rect class="cls-7" x="1066.2" y="156.66" width="16" height="16"/>
        <rect class="cls-7" x="1102.2" y="156.66" width="16" height="16"/>
        <rect class="cls-7" x="1120.2" y="156.66" width="16" height="16"/>
      </g>
      <g>
        <rect class="cls-7" x="1084.2" y="174.66" width="16" height="16"/>
        <rect class="cls-7" x="1066.2" y="174.66" width="16" height="16"/>
        <rect class="cls-7" x="1102.2" y="174.66" width="16" height="16"/>
        <rect class="cls-7" x="1120.2" y="174.66" width="16" height="16"/>
      </g>
    </g>
    <g>
      <g>
        <rect class="cls-7" x="1084.2" y="192.66" width="16" height="16"/>
        <rect class="cls-7" x="1066.2" y="192.66" width="16" height="16"/>
        <rect class="cls-7" x="1102.2" y="192.66" width="16" height="16"/>
        <rect class="cls-7" x="1120.2" y="192.66" width="16" height="16"/>
      </g>
      <g>
        <rect class="cls-7" x="1084.2" y="210.66" width="16" height="16"/>
        <rect class="cls-7" x="1066.2" y="210.66" width="16" height="16"/>
        <rect class="cls-7" x="1102.2" y="210.66" width="16" height="16"/>
        <rect class="cls-7" x="1120.2" y="210.66" width="16" height="16"/>
      </g>
      <g>
        <rect class="cls-7" x="1084.2" y="228.66" width="16" height="16"/>
        <rect class="cls-7" x="1066.2" y="228.66" width="16" height="16"/>
        <rect class="cls-7" x="1102.2" y="228.66" width="16" height="16"/>
        <rect class="cls-7" x="1120.2" y="228.66" width="16" height="16"/>
      </g>
    </g>
    <g>
      <g>
        <rect class="cls-7" x="1084.2" y="246.66" width="16" height="16"/>
        <rect class="cls-7" x="1066.2" y="246.66" width="16" height="16"/>
        <rect class="cls-7" x="1102.2" y="246.66" width="16" height="16"/>
        <rect class="cls-7" x="1120.2" y="246.66" width="16" height="16"/>
      </g>
      <g>
        <rect class="cls-7" x="1084.2" y="264.66" width="16" height="16"/>
        <rect class="cls-7" x="1066.2" y="264.66" width="16" height="16"/>
        <rect class="cls-7" x="1102.2" y="264.66" width="16" height="16"/>
        <rect class="cls-7" x="1120.2" y="264.66" width="16" height="16"/>
      </g>
      <g>
        <rect class="cls-7" x="1084.2" y="282.66" width="16" height="16"/>
        <rect class="cls-7" x="1066.2" y="282.66" width="16" height="16"/>
        <rect class="cls-7" x="1102.2" y="282.66" width="16" height="16"/>
        <rect class="cls-7" x="1120.2" y="282.66" width="16" height="16"/>
      </g>
    </g>
  </g>
  <g>
    <g>
      <line class="cls-4" x1="1101.2" y1="119.09" x2="1101.2" y2="58.66"/>
      <circle class="cls-12" cx="1101.2" cy="118.9" r="3.76"/>
    </g>
    <text class="cls-15" transform="translate(1042.4 28.42)"><tspan x="0" y="0">Contextualized</tspan><tspan x="-8.4" y="16.8">Token Embeddings</tspan></text>
  </g>
</svg>