<?xml version="1.0" encoding="UTF-8"?>
<svg id="Layer_1" xmlns="http://www.w3.org/2000/svg" viewBox="0 0 1377 369">
  <defs>
    <style>
      .cls-1 {
        font-size: 18px;
      }

      .cls-1, .cls-2 {
        font-family: NotoSansMono-Regular, 'Noto Sans Mono';
        font-variation-settings: 'wght' 400, 'wdth' 100;
      }

      .cls-3 {
        stroke: #b3b3b3;
      }

      .cls-3, .cls-4, .cls-5, .cls-6, .cls-7 {
        stroke-miterlimit: 10;
      }

      .cls-3, .cls-5, .cls-7 {
        fill: none;
      }

      .cls-4 {
        fill: #fff;
      }

      .cls-4, .cls-5, .cls-6, .cls-7 {
        stroke: #000;
      }

      .cls-6 {
        fill: #f1f1f1;
      }

      .cls-8 {
        fill: #b3b3b3;
      }

      .cls-2 {
        font-size: 14px;
      }

      .cls-7 {
        stroke-width: 4px;
      }
    </style>
  </defs>
  <g>
    <line class="cls-7" x1="210.2" y1="194.66" x2="235.02" y2="194.66"/>
    <polygon points="233.57 199.65 242.2 194.66 233.57 189.67 233.57 199.65"/>
  </g>
  <g>
    <line class="cls-7" x1="306.2" y1="194.66" x2="331.02" y2="194.66"/>
    <polygon points="329.57 199.65 338.2 194.66 329.57 189.67 329.57 199.65"/>
  </g>
  <rect class="cls-6" x="616.7" y="-189.34" width="227" height="768" rx="4" ry="4" transform="translate(924.86 -535.54) rotate(90)"/>
  <rect class="cls-4" x="402.2" y="162.66" width="128" height="64" rx="4" ry="4"/>
  <text class="cls-2" transform="translate(428.4 197.6)"><tspan x="0" y="0">Normalize</tspan></text>
  <rect class="cls-4" x="578.2" y="162.66" width="128" height="64" rx="4" ry="4"/>
  <text class="cls-2" transform="translate(604.4 197.6)"><tspan x="0" y="0">Attention</tspan></text>
  <rect class="cls-4" x="754.2" y="162.66" width="128" height="64" rx="4" ry="4"/>
  <text class="cls-2" transform="translate(780.4 197.6)"><tspan x="0" y="0">Normalize</tspan></text>
  <rect class="cls-4" x="930.2" y="162.66" width="128" height="64" rx="4" ry="4"/>
  <text class="cls-2" transform="translate(981.6 197.6)"><tspan x="0" y="0">FFN</tspan></text>
  <g>
    <line class="cls-7" x1="362.2" y1="194.66" x2="387.02" y2="194.66"/>
    <polygon points="385.57 199.65 394.2 194.66 385.57 189.67 385.57 199.65"/>
  </g>
  <g>
    <line class="cls-7" x1="538.2" y1="194.66" x2="563.02" y2="194.66"/>
    <polygon points="561.57 199.65 570.2 194.66 561.57 189.67 561.57 199.65"/>
  </g>
  <g>
    <line class="cls-7" x1="714.2" y1="194.66" x2="739.02" y2="194.66"/>
    <polygon points="737.56 199.65 746.2 194.66 737.56 189.67 737.56 199.65"/>
  </g>
  <g>
    <line class="cls-7" x1="890.2" y1="194.66" x2="915.02" y2="194.66"/>
    <polygon points="913.56 199.65 922.2 194.66 913.56 189.67 913.56 199.65"/>
  </g>
  <g>
    <polyline class="cls-7" points="374.2 194.66 374.2 258.66 726.2 258.66 726.2 201.84"/>
    <polygon points="731.19 203.3 726.2 194.66 721.21 203.3 731.19 203.3"/>
  </g>
  <g>
    <line class="cls-7" x1="1066.2" y1="194.66" x2="1091.02" y2="194.66"/>
    <polygon points="1089.56 199.65 1098.2 194.66 1089.56 189.67 1089.56 199.65"/>
  </g>
  <g>
    <polyline class="cls-7" points="726.2 194.66 726.2 130.66 1078.2 130.66 1078.2 187.48"/>
    <polygon points="1073.21 186.03 1078.2 194.66 1083.19 186.03 1073.21 186.03"/>
  </g>
  <rect class="cls-4" x="250.2" y="81.16" width="48" height="227" rx="4" ry="4"/>
  <text class="cls-2" transform="translate(277.63 224.06) rotate(-90)"><tspan x="0" y="0">Layer 1</tspan></text>
  <g>
    <line class="cls-7" x1="1122.2" y1="194.66" x2="1147.02" y2="194.66"/>
    <polygon points="1145.56 199.65 1154.2 194.66 1145.56 189.67 1145.56 199.65"/>
  </g>
  <rect class="cls-4" x="1162.2" y="81.16" width="48" height="227" rx="4" ry="4"/>
  <text class="cls-2" transform="translate(1189.63 224.06) rotate(-90)"><tspan x="0" y="0">Layer N</tspan></text>
  <g>
    <line class="cls-7" x1="1218.2" y1="194.66" x2="1243.02" y2="194.66"/>
    <polygon points="1241.56 199.65 1250.2 194.66 1241.56 189.67 1241.56 199.65"/>
  </g>
  <text class="cls-1" transform="translate(635.25 339.59)"><tspan x="0" y="0">Transformer Layer</tspan></text>
  <text class="cls-1" transform="translate(818.85 345.58) scale(.58)"><tspan x="0" y="0">i</tspan></text>
  <text class="cls-2" transform="translate(491.4 286.66)"><tspan x="0" y="0">Residual Input</tspan></text>
  <text class="cls-2" transform="translate(826.6 109.21)"><tspan x="0" y="0">Residual Attention</tspan></text>
  <g>
    <line class="cls-7" x1="114.2" y1="194.66" x2="139.02" y2="194.66"/>
    <polygon points="137.56 199.65 146.2 194.66 137.56 189.67 137.56 199.65"/>
  </g>
  <g>
    <rect class="cls-4" x="154.2" y="81.16" width="48" height="227" rx="4" ry="4"/>
    <text class="cls-2" transform="translate(181.48 224.06) rotate(-90)"><tspan x="0" y="0">Layer 0</tspan></text>
  </g>
  <g>
    <g>
      <g>
        <rect class="cls-5" x="54.2" y="114.66" width="16" height="16"/>
        <rect class="cls-5" x="36.2" y="114.66" width="16" height="16"/>
        <rect class="cls-5" x="72.2" y="114.66" width="16" height="16"/>
        <rect class="cls-5" x="90.2" y="114.66" width="16" height="16"/>
      </g>
      <g>
        <rect class="cls-5" x="54.2" y="132.66" width="16" height="16"/>
        <rect class="cls-5" x="36.2" y="132.66" width="16" height="16"/>
        <rect class="cls-5" x="72.2" y="132.66" width="16" height="16"/>
        <rect class="cls-5" x="90.2" y="132.66" width="16" height="16"/>
      </g>
      <g>
        <rect class="cls-5" x="54.2" y="150.66" width="16" height="16"/>
        <rect class="cls-5" x="36.2" y="150.66" width="16" height="16"/>
        <rect class="cls-5" x="72.2" y="150.66" width="16" height="16"/>
        <rect class="cls-5" x="90.2" y="150.66" width="16" height="16"/>
      </g>
    </g>
    <g>
      <g>
        <rect class="cls-5" x="54.2" y="168.66" width="16" height="16"/>
        <rect class="cls-5" x="36.2" y="168.66" width="16" height="16"/>
        <rect class="cls-5" x="72.2" y="168.66" width="16" height="16"/>
        <rect class="cls-5" x="90.2" y="168.66" width="16" height="16"/>
      </g>
      <g>
        <rect class="cls-5" x="54.2" y="186.66" width="16" height="16"/>
        <rect class="cls-5" x="36.2" y="186.66" width="16" height="16"/>
        <rect class="cls-5" x="72.2" y="186.66" width="16" height="16"/>
        <rect class="cls-5" x="90.2" y="186.66" width="16" height="16"/>
      </g>
      <g>
        <rect class="cls-5" x="54.2" y="204.66" width="16" height="16"/>
        <rect class="cls-5" x="36.2" y="204.66" width="16" height="16"/>
        <rect class="cls-5" x="72.2" y="204.66" width="16" height="16"/>
        <rect class="cls-5" x="90.2" y="204.66" width="16" height="16"/>
      </g>
    </g>
    <g>
      <g>
        <rect class="cls-5" x="54.2" y="222.66" width="16" height="16"/>
        <rect class="cls-5" x="36.2" y="222.66" width="16" height="16"/>
        <rect class="cls-5" x="72.2" y="222.66" width="16" height="16"/>
        <rect class="cls-5" x="90.2" y="222.66" width="16" height="16"/>
      </g>
      <g>
        <rect class="cls-5" x="54.2" y="240.66" width="16" height="16"/>
        <rect class="cls-5" x="36.2" y="240.66" width="16" height="16"/>
        <rect class="cls-5" x="72.2" y="240.66" width="16" height="16"/>
        <rect class="cls-5" x="90.2" y="240.66" width="16" height="16"/>
      </g>
      <g>
        <rect class="cls-5" x="54.2" y="258.66" width="16" height="16"/>
        <rect class="cls-5" x="36.2" y="258.66" width="16" height="16"/>
        <rect class="cls-5" x="72.2" y="258.66" width="16" height="16"/>
        <rect class="cls-5" x="90.2" y="258.66" width="16" height="16"/>
      </g>
    </g>
  </g>
  <g>
    <g>
      <g>
        <rect class="cls-6" x="1276.2" y="114.66" width="16" height="16"/>
        <rect class="cls-6" x="1258.2" y="114.66" width="16" height="16"/>
        <rect class="cls-6" x="1294.2" y="114.66" width="16" height="16"/>
        <rect class="cls-6" x="1312.2" y="114.66" width="16" height="16"/>
      </g>
      <g>
        <rect class="cls-6" x="1276.2" y="132.66" width="16" height="16"/>
        <rect class="cls-6" x="1258.2" y="132.66" width="16" height="16"/>
        <rect class="cls-6" x="1294.2" y="132.66" width="16" height="16"/>
        <rect class="cls-6" x="1312.2" y="132.66" width="16" height="16"/>
      </g>
      <g>
        <rect class="cls-6" x="1276.2" y="150.66" width="16" height="16"/>
        <rect class="cls-6" x="1258.2" y="150.66" width="16" height="16"/>
        <rect class="cls-6" x="1294.2" y="150.66" width="16" height="16"/>
        <rect class="cls-6" x="1312.2" y="150.66" width="16" height="16"/>
      </g>
    </g>
    <g>
      <g>
        <rect class="cls-6" x="1276.2" y="168.66" width="16" height="16"/>
        <rect class="cls-6" x="1258.2" y="168.66" width="16" height="16"/>
        <rect class="cls-6" x="1294.2" y="168.66" width="16" height="16"/>
        <rect class="cls-6" x="1312.2" y="168.66" width="16" height="16"/>
      </g>
      <g>
        <rect class="cls-6" x="1276.2" y="186.66" width="16" height="16"/>
        <rect class="cls-6" x="1258.2" y="186.66" width="16" height="16"/>
        <rect class="cls-6" x="1294.2" y="186.66" width="16" height="16"/>
        <rect class="cls-6" x="1312.2" y="186.66" width="16" height="16"/>
      </g>
      <g>
        <rect class="cls-6" x="1276.2" y="204.66" width="16" height="16"/>
        <rect class="cls-6" x="1258.2" y="204.66" width="16" height="16"/>
        <rect class="cls-6" x="1294.2" y="204.66" width="16" height="16"/>
        <rect class="cls-6" x="1312.2" y="204.66" width="16" height="16"/>
      </g>
    </g>
    <g>
      <g>
        <rect class="cls-6" x="1276.2" y="222.66" width="16" height="16"/>
        <rect class="cls-6" x="1258.2" y="222.66" width="16" height="16"/>
        <rect class="cls-6" x="1294.2" y="222.66" width="16" height="16"/>
        <rect class="cls-6" x="1312.2" y="222.66" width="16" height="16"/>
      </g>
      <g>
        <rect class="cls-6" x="1276.2" y="240.66" width="16" height="16"/>
        <rect class="cls-6" x="1258.2" y="240.66" width="16" height="16"/>
        <rect class="cls-6" x="1294.2" y="240.66" width="16" height="16"/>
        <rect class="cls-6" x="1312.2" y="240.66" width="16" height="16"/>
      </g>
      <g>
        <rect class="cls-6" x="1276.2" y="258.66" width="16" height="16"/>
        <rect class="cls-6" x="1258.2" y="258.66" width="16" height="16"/>
        <rect class="cls-6" x="1294.2" y="258.66" width="16" height="16"/>
        <rect class="cls-6" x="1312.2" y="258.66" width="16" height="16"/>
      </g>
    </g>
  </g>
  <g>
    <line class="cls-3" x1="1293.2" y1="62.23" x2="1293.2" y2="106.66"/>
    <path class="cls-8" d="M1289.44,62.42c0-2.08,1.68-3.76,3.76-3.76s3.76,1.68,3.76,3.76-1.68,3.76-3.76,3.76-3.76-1.68-3.76-3.76Z"/>
  </g>
  <text class="cls-2" transform="translate(1234.4 28.42)"><tspan x="0" y="0">Contextualized</tspan><tspan x="-8.4" y="16.8">Token Embeddings</tspan></text>
  <g>
    <line class="cls-3" x1="71.2" y1="62.23" x2="71.2" y2="106.66"/>
    <path class="cls-8" d="M67.44,62.42c0-2.08,1.68-3.76,3.76-3.76s3.76,1.68,3.76,3.76-1.68,3.76-3.76,3.76-3.76-1.68-3.76-3.76Z"/>
  </g>
  <text class="cls-2" transform="translate(16.6 28.42)"><tspan x="0" y="0">Initial Token</tspan><tspan x="12.6" y="16.8">Embeddings</tspan></text>
</svg>