<?xml version="1.0" encoding="UTF-8"?>
<svg id="Layer_1" xmlns="http://www.w3.org/2000/svg" viewBox="0 0 640 407">
  <defs>
    <style>
      .cls-1 {
        stroke-linecap: round;
        stroke-linejoin: round;
      }

      .cls-1, .cls-2, .cls-3 {
        stroke: #000;
      }

      .cls-1, .cls-3 {
        fill: none;
      }

      .cls-4 {
        font-family: DejaVuSansMono-Bold, 'DejaVu Sans Mono';
        font-size: 22px;
        font-weight: 700;
      }

      .cls-2 {
        fill: #fff;
      }

      .cls-2, .cls-3 {
        stroke-miterlimit: 10;
      }

      .cls-5 {
        opacity: .5;
      }

      .cls-6 {
        font-size: 14px;
      }

      .cls-6, .cls-7 {
        font-family: DejaVuSansMono, 'DejaVu Sans Mono';
      }

      .cls-7 {
        font-size: 12px;
      }
    </style>
  </defs>
  <g>
    <polygon class="cls-2" points="216 15.77 168 15.77 160 23.77 160 55.77 224 55.77 224 23.77 216 15.77"/>
    <text class="cls-7" transform="translate(173.94 38.71)"><tspan x="0" y="0">[CLS]</tspan></text>
    <polygon class="cls-2" points="296 15.77 248 15.77 240 23.77 240 55.77 304 55.77 304 23.77 296 15.77"/>
    <text class="cls-7" transform="translate(268.39 38.71)"><tspan x="0" y="0">I</tspan></text>
    <polygon class="cls-2" points="376 15.77 328 15.77 320 23.77 320 55.77 384 55.77 384 23.77 376 15.77"/>
    <text class="cls-7" transform="translate(337.55 38.71)"><tspan x="0" y="0">love</tspan></text>
    <polygon class="cls-2" points="456 15.77 408 15.77 400 23.77 400 55.77 464 55.77 464 23.77 456 15.77"/>
    <text class="cls-7" transform="translate(421.16 38.71)"><tspan x="0" y="0">ice</tspan></text>
    <polygon class="cls-2" points="536 15.77 488 15.77 480 23.77 480 55.77 544 55.77 544 23.77 536 15.77"/>
    <text class="cls-7" transform="translate(493.94 38.71)"><tspan x="0" y="0">cream</tspan></text>
    <polygon class="cls-2" points="616 15.77 568 15.77 560 23.77 560 55.77 624 55.77 624 23.77 616 15.77"/>
    <text class="cls-7" transform="translate(573.94 38.71)"><tspan x="0" y="0">[SEP]</tspan></text>
  </g>
  <text class="cls-7" transform="translate(107.88 38.71)"><tspan x="0" y="0">Input</tspan></text>
  <line class="cls-3" x1="16" y1="71.77" x2="624" y2="71.77"/>
  <text class="cls-7" transform="translate(28.41 110.71)"><tspan x="0" y="0">Value Embeddings</tspan></text>
  <text class="cls-7" transform="translate(86.2 187.2)"><tspan x="0" y="0">Position </tspan><tspan x="-14.45" y="14.4">Embeddings</tspan></text>
  <text class="cls-7" transform="translate(93.43 270.89)"><tspan x="0" y="0">Initial</tspan><tspan x="-65.02" y="14.4">Token Embeddings</tspan></text>
  <g>
    <rect class="cls-2" x="160" y="87.77" width="64" height="40"/>
    <text class="cls-6" transform="translate(175.5 108.87)"><tspan x="0" y="0">E</tspan></text>
    <text class="cls-6" transform="translate(183.93 113.53) scale(.58)"><tspan x="0" y="0">[CLS]</tspan></text>
    <rect class="cls-2" x="240" y="87.77" width="64" height="40"/>
    <text class="cls-6" transform="translate(265.33 108.87)"><tspan x="0" y="0">E</tspan></text>
    <text class="cls-6" transform="translate(273.76 113.53) scale(.58)"><tspan x="0" y="0">I</tspan></text>
    <rect class="cls-2" x="320" y="87.77" width="64" height="40"/>
    <text class="cls-6" transform="translate(337.96 108.87)"><tspan x="0" y="0">E</tspan></text>
    <text class="cls-6" transform="translate(346.39 113.53) scale(.58)"><tspan x="0" y="0">love</tspan></text>
    <rect class="cls-2" x="400" y="87.77" width="64" height="40"/>
    <text class="cls-6" transform="translate(420.41 108.87)"><tspan x="0" y="0">E</tspan></text>
    <text class="cls-6" transform="translate(428.84 113.53) scale(.58)"><tspan x="0" y="0">ice</tspan></text>
    <rect class="cls-2" x="480" y="87.77" width="64" height="40"/>
    <text class="cls-6" transform="translate(495.5 108.87)"><tspan x="0" y="0">E</tspan></text>
    <text class="cls-6" transform="translate(503.93 113.53) scale(.58)"><tspan x="0" y="0">cream</tspan></text>
    <rect class="cls-2" x="560" y="87.77" width="64" height="40"/>
    <text class="cls-6" transform="translate(575.5 108.87)"><tspan x="0" y="0">E</tspan></text>
    <text class="cls-6" transform="translate(583.93 113.53) scale(.58)"><tspan x="0" y="0">[SEP]</tspan></text>
  </g>
  <rect class="cls-2" x="160" y="171.46" width="64" height="40"/>
  <text class="cls-6" transform="translate(185.33 192.56)"><tspan x="0" y="0">E</tspan></text>
  <text class="cls-6" transform="translate(193.76 197.22) scale(.58)"><tspan x="0" y="0">0</tspan></text>
  <rect class="cls-2" x="240" y="171.46" width="64" height="40"/>
  <text class="cls-6" transform="translate(265.33 192.56)"><tspan x="0" y="0">E</tspan></text>
  <text class="cls-6" transform="translate(273.76 197.22) scale(.58)"><tspan x="0" y="0">1</tspan></text>
  <rect class="cls-2" x="320" y="171.46" width="64" height="40"/>
  <text class="cls-6" transform="translate(345.33 192.56)"><tspan x="0" y="0">E</tspan></text>
  <text class="cls-6" transform="translate(353.76 197.22) scale(.58)"><tspan x="0" y="0">2</tspan></text>
  <rect class="cls-2" x="400" y="171.46" width="64" height="40"/>
  <text class="cls-6" transform="translate(425.33 192.56)"><tspan x="0" y="0">E</tspan></text>
  <text class="cls-6" transform="translate(433.76 197.22) scale(.58)"><tspan x="0" y="0">3</tspan></text>
  <rect class="cls-2" x="480" y="171.46" width="64" height="40"/>
  <text class="cls-6" transform="translate(505.33 192.56)"><tspan x="0" y="0">E</tspan></text>
  <text class="cls-6" transform="translate(513.76 197.22) scale(.58)"><tspan x="0" y="0">4</tspan></text>
  <rect class="cls-2" x="560" y="171.46" width="64" height="40"/>
  <text class="cls-6" transform="translate(585.33 192.56)"><tspan x="0" y="0">E</tspan></text>
  <text class="cls-6" transform="translate(593.76 197.22) scale(.58)"><tspan x="0" y="0">5</tspan></text>
  <text class="cls-4" transform="translate(185.38 154.79)"><tspan x="0" y="0">+</tspan></text>
  <text class="cls-4" transform="translate(265.38 154.79)"><tspan x="0" y="0">+</tspan></text>
  <text class="cls-4" transform="translate(345.38 154.79)"><tspan x="0" y="0">+</tspan></text>
  <text class="cls-4" transform="translate(425.38 154.79)"><tspan x="0" y="0">+</tspan></text>
  <text class="cls-4" transform="translate(505.38 154.79)"><tspan x="0" y="0">+</tspan></text>
  <text class="cls-4" transform="translate(585.38 154.79)"><tspan x="0" y="0">+</tspan></text>
  <text class="cls-4" transform="translate(185.38 238.48)"><tspan x="0" y="0">=</tspan></text>
  <g>
    <rect class="cls-2" x="160" y="255.15" width="64" height="40"/>
    <text class="cls-6" transform="translate(170.59 276.25)"><tspan x="0" y="0">E</tspan></text>
    <text class="cls-6" transform="translate(179.02 280.91) scale(.58)"><tspan x="0" y="0">[CLS],0</tspan></text>
    <rect class="cls-2" x="240" y="255.15" width="64" height="40"/>
    <text class="cls-6" transform="translate(260.41 276.25)"><tspan x="0" y="0">E</tspan></text>
    <text class="cls-6" transform="translate(268.84 280.91) scale(.58)"><tspan x="0" y="0">I,1</tspan></text>
    <rect class="cls-2" x="320" y="255.15" width="64" height="40"/>
    <text class="cls-6" transform="translate(333.04 276.25)"><tspan x="0" y="0">E</tspan></text>
    <text class="cls-6" transform="translate(341.47 280.91) scale(.58)"><tspan x="0" y="0">love,2</tspan></text>
    <rect class="cls-2" x="400" y="255.15" width="64" height="40"/>
    <text class="cls-6" transform="translate(415.5 276.25)"><tspan x="0" y="0">E</tspan></text>
    <text class="cls-6" transform="translate(423.93 280.91) scale(.58)"><tspan x="0" y="0">ice,3</tspan></text>
    <rect class="cls-2" x="480" y="255.15" width="64" height="40"/>
    <text class="cls-6" transform="translate(490.59 276.25)"><tspan x="0" y="0">E</tspan></text>
    <text class="cls-6" transform="translate(499.02 280.91) scale(.58)"><tspan x="0" y="0">cream,4</tspan></text>
    <rect class="cls-2" x="560" y="255.15" width="64" height="40"/>
    <text class="cls-6" transform="translate(570.59 276.25)"><tspan x="0" y="0">E</tspan></text>
    <text class="cls-6" transform="translate(579.02 280.91) scale(.58)"><tspan x="0" y="0">[SEP],5</tspan></text>
  </g>
  <text class="cls-4" transform="translate(265.38 238.48)"><tspan x="0" y="0">=</tspan></text>
  <text class="cls-4" transform="translate(345.38 238.48)"><tspan x="0" y="0">=</tspan></text>
  <text class="cls-4" transform="translate(425.38 238.48)"><tspan x="0" y="0">=</tspan></text>
  <text class="cls-4" transform="translate(505.38 238.48)"><tspan x="0" y="0">=</tspan></text>
  <text class="cls-4" transform="translate(585.38 238.48)"><tspan x="0" y="0">=</tspan></text>
  <g>
    <rect class="cls-2" x="160" y="351.23" width="64" height="40"/>
    <text class="cls-6" transform="translate(170.59 372.33)"><tspan x="0" y="0">E</tspan></text>
    <text class="cls-6" transform="translate(179.02 376.99) scale(.58)"><tspan x="0" y="0">[CLS],*</tspan></text>
    <rect class="cls-2" x="240" y="351.23" width="64" height="40"/>
    <text class="cls-6" transform="translate(260.41 372.33)"><tspan x="0" y="0">E</tspan></text>
    <text class="cls-6" transform="translate(268.84 376.99) scale(.58)"><tspan x="0" y="0">I,*</tspan></text>
    <rect class="cls-2" x="320" y="351.23" width="64" height="40"/>
    <text class="cls-6" transform="translate(333.04 372.33)"><tspan x="0" y="0">E</tspan></text>
    <text class="cls-6" transform="translate(341.47 376.99) scale(.58)"><tspan x="0" y="0">love,*</tspan></text>
    <rect class="cls-2" x="400" y="351.23" width="64" height="40"/>
    <text class="cls-6" transform="translate(415.5 372.33)"><tspan x="0" y="0">E</tspan></text>
    <text class="cls-6" transform="translate(423.93 376.99) scale(.58)"><tspan x="0" y="0">ice,*</tspan></text>
    <rect class="cls-2" x="480" y="351.23" width="64" height="40"/>
    <text class="cls-6" transform="translate(490.59 372.33)"><tspan x="0" y="0">E</tspan></text>
    <text class="cls-6" transform="translate(499.02 376.99) scale(.58)"><tspan x="0" y="0">cream,*</tspan></text>
    <rect class="cls-2" x="560" y="351.23" width="64" height="40"/>
    <text class="cls-6" transform="translate(570.59 372.33)"><tspan x="0" y="0">E</tspan></text>
    <text class="cls-6" transform="translate(579.02 376.99) scale(.58)"><tspan x="0" y="0">[SEP],*</tspan></text>
  </g>
  <g class="cls-5">
    <g>
      <line class="cls-1" x1="192" y1="303.23" x2="512" y2="343.23"/>
      <line class="cls-1" x1="192" y1="303.23" x2="592" y2="343.23"/>
      <polygon class="cls-1" points="272 343.23 192 303.23 192 343.23 272 303.15 272 343.23"/>
      <polygon class="cls-1" points="432 343.23 192 303.23 352 343.23 272 303.15 432 343.23"/>
      <polyline class="cls-1" points="192 343.23 352 303.23 272 343.23"/>
      <polyline class="cls-1" points="352 343.23 352 303.23 432 343.23"/>
      <polygon class="cls-1" points="592 343.23 272 303.15 512 343.23 352 303.23 592 343.23"/>
    </g>
    <g>
      <line class="cls-1" x1="592" y1="303.23" x2="272" y2="343.23"/>
      <line class="cls-1" x1="592" y1="303.23" x2="192" y2="343.23"/>
      <polygon class="cls-1" points="512 343.23 592 303.23 592 343.23 512 303.15 512 343.23"/>
      <polygon class="cls-1" points="352 343.23 592 303.23 432 343.23 512 303.15 352 343.23"/>
      <polyline class="cls-1" points="592 343.23 432 303.23 512 343.23"/>
      <polyline class="cls-1" points="432 343.23 432 303.23 352 343.23"/>
      <polygon class="cls-1" points="192 343.23 512 303.15 272 343.23 432 303.23 192 343.23"/>
    </g>
  </g>
  <text class="cls-7" transform="translate(42.86 366.97)"><tspan x="0" y="0">Contextualized </tspan><tspan x="-14.45" y="14.4">Token Embeddings</tspan></text>
</svg>